<mxfile host="Electron" modified="2024-02-22T19:45:15.922Z" agent="Mozilla/5.0 (Macintosh; Intel Mac OS X 10_15_7) AppleWebKit/537.36 (KHTML, like Gecko) draw.io/23.1.5 Chrome/120.0.6099.109 Electron/28.1.0 Safari/537.36" etag="ZW0nY9PyNS3lzPvsaMoe" version="23.1.5" type="device">
  <diagram name="1" id="wOMNPCSxDhNx-oBBYqSA">
    <mxGraphModel dx="1493" dy="950" grid="1" gridSize="10" guides="1" tooltips="1" connect="1" arrows="1" fold="1" page="1" pageScale="1" pageWidth="1169" pageHeight="827" math="0" shadow="0">
      <root>
        <mxCell id="0" />
        <mxCell id="1" parent="0" />
        <mxCell id="RrywGPO0LAKcSDGo4g_0-13" value="Application layer / Website" style="rounded=0;whiteSpace=wrap;html=1;dashed=1;dashPattern=8 8;fontSize=20;verticalAlign=top;fillColor=#f5f5f5;fontColor=#333333;strokeColor=#666666;" parent="1" vertex="1">
          <mxGeometry x="40" y="40" width="560" height="520" as="geometry" />
        </mxCell>
        <mxCell id="RrywGPO0LAKcSDGo4g_0-18" value="Processing layer / API" style="rounded=0;whiteSpace=wrap;html=1;dashed=1;dashPattern=8 8;fontSize=20;verticalAlign=top;fillColor=#f5f5f5;fontColor=#333333;strokeColor=#666666;" parent="1" vertex="1">
          <mxGeometry x="680" y="40" width="280" height="520" as="geometry" />
        </mxCell>
        <mxCell id="RrywGPO0LAKcSDGo4g_0-6" value="" style="edgeStyle=orthogonalEdgeStyle;rounded=0;orthogonalLoop=1;jettySize=auto;html=1;" parent="1" source="RrywGPO0LAKcSDGo4g_0-4" target="RrywGPO0LAKcSDGo4g_0-7" edge="1">
          <mxGeometry relative="1" as="geometry">
            <mxPoint x="820" y="420" as="targetPoint" />
          </mxGeometry>
        </mxCell>
        <mxCell id="RrywGPO0LAKcSDGo4g_0-4" value="Process file" style="rounded=0;whiteSpace=wrap;html=1;fillColor=#f8cecc;strokeColor=#b85450;" parent="1" vertex="1">
          <mxGeometry x="760" y="320" width="120" height="60" as="geometry" />
        </mxCell>
        <mxCell id="MNNBpwFa73a-y30u9vtK-6" value="File" style="edgeStyle=orthogonalEdgeStyle;rounded=0;orthogonalLoop=1;jettySize=auto;html=1;entryX=1;entryY=0.5;entryDx=0;entryDy=0;" edge="1" parent="1" source="RrywGPO0LAKcSDGo4g_0-7" target="RrywGPO0LAKcSDGo4g_0-23">
          <mxGeometry relative="1" as="geometry" />
        </mxCell>
        <mxCell id="MNNBpwFa73a-y30u9vtK-7" value="Optional route" style="edgeStyle=orthogonalEdgeStyle;rounded=0;orthogonalLoop=1;jettySize=auto;html=1;entryX=0.5;entryY=1;entryDx=0;entryDy=0;dashed=1;" edge="1" parent="1" source="RrywGPO0LAKcSDGo4g_0-7" target="RrywGPO0LAKcSDGo4g_0-16">
          <mxGeometry x="-0.3889" relative="1" as="geometry">
            <Array as="points">
              <mxPoint x="820" y="520" />
              <mxPoint x="180" y="520" />
            </Array>
            <mxPoint as="offset" />
          </mxGeometry>
        </mxCell>
        <mxCell id="RrywGPO0LAKcSDGo4g_0-7" value="Stored new file" style="rounded=0;whiteSpace=wrap;html=1;fillColor=#f8cecc;strokeColor=#b85450;" parent="1" vertex="1">
          <mxGeometry x="760" y="420" width="120" height="60" as="geometry" />
        </mxCell>
        <mxCell id="RrywGPO0LAKcSDGo4g_0-11" style="edgeStyle=orthogonalEdgeStyle;rounded=0;orthogonalLoop=1;jettySize=auto;html=1;" parent="1" source="RrywGPO0LAKcSDGo4g_0-9" target="RrywGPO0LAKcSDGo4g_0-4" edge="1">
          <mxGeometry relative="1" as="geometry" />
        </mxCell>
        <mxCell id="MNNBpwFa73a-y30u9vtK-1" value="URI" style="edgeStyle=orthogonalEdgeStyle;rounded=0;orthogonalLoop=1;jettySize=auto;html=1;exitX=0;exitY=0.75;exitDx=0;exitDy=0;entryX=1;entryY=0.75;entryDx=0;entryDy=0;" edge="1" parent="1" source="RrywGPO0LAKcSDGo4g_0-9" target="RrywGPO0LAKcSDGo4g_0-22">
          <mxGeometry relative="1" as="geometry">
            <Array as="points">
              <mxPoint x="640" y="265" />
              <mxPoint x="640" y="265" />
            </Array>
          </mxGeometry>
        </mxCell>
        <mxCell id="RrywGPO0LAKcSDGo4g_0-9" value="Receive file" style="rounded=0;whiteSpace=wrap;html=1;fillColor=#f8cecc;strokeColor=#b85450;" parent="1" vertex="1">
          <mxGeometry x="760" y="220" width="120" height="60" as="geometry" />
        </mxCell>
        <mxCell id="RrywGPO0LAKcSDGo4g_0-24" style="edgeStyle=orthogonalEdgeStyle;rounded=0;orthogonalLoop=1;jettySize=auto;html=1;dashed=1;" parent="1" source="RrywGPO0LAKcSDGo4g_0-14" target="RrywGPO0LAKcSDGo4g_0-21" edge="1">
          <mxGeometry relative="1" as="geometry" />
        </mxCell>
        <mxCell id="RrywGPO0LAKcSDGo4g_0-14" value="Upload file(s)" style="rounded=0;whiteSpace=wrap;html=1;fillColor=#dae8fc;strokeColor=#6c8ebf;" parent="1" vertex="1">
          <mxGeometry x="120" y="120" width="120" height="60" as="geometry" />
        </mxCell>
        <mxCell id="RrywGPO0LAKcSDGo4g_0-16" value="Download file(s)" style="rounded=0;whiteSpace=wrap;html=1;fillColor=#dae8fc;strokeColor=#6c8ebf;" parent="1" vertex="1">
          <mxGeometry x="120" y="420" width="120" height="60" as="geometry" />
        </mxCell>
        <mxCell id="RrywGPO0LAKcSDGo4g_0-25" style="edgeStyle=orthogonalEdgeStyle;rounded=0;orthogonalLoop=1;jettySize=auto;html=1;" parent="1" source="RrywGPO0LAKcSDGo4g_0-21" target="RrywGPO0LAKcSDGo4g_0-22" edge="1">
          <mxGeometry relative="1" as="geometry" />
        </mxCell>
        <mxCell id="RrywGPO0LAKcSDGo4g_0-21" value="Receive file" style="rounded=0;whiteSpace=wrap;html=1;fillColor=#dae8fc;strokeColor=#6c8ebf;" parent="1" vertex="1">
          <mxGeometry x="400" y="120" width="120" height="60" as="geometry" />
        </mxCell>
        <mxCell id="RrywGPO0LAKcSDGo4g_0-26" value="File" style="edgeStyle=orthogonalEdgeStyle;rounded=0;orthogonalLoop=1;jettySize=auto;html=1;exitX=1;exitY=0.25;exitDx=0;exitDy=0;entryX=0;entryY=0.25;entryDx=0;entryDy=0;" parent="1" source="RrywGPO0LAKcSDGo4g_0-22" target="RrywGPO0LAKcSDGo4g_0-9" edge="1">
          <mxGeometry relative="1" as="geometry" />
        </mxCell>
        <mxCell id="MNNBpwFa73a-y30u9vtK-5" value="Wait for resource to be ready" style="edgeStyle=orthogonalEdgeStyle;rounded=0;orthogonalLoop=1;jettySize=auto;html=1;" edge="1" parent="1" source="RrywGPO0LAKcSDGo4g_0-22" target="RrywGPO0LAKcSDGo4g_0-23">
          <mxGeometry relative="1" as="geometry">
            <mxPoint x="460" y="420" as="targetPoint" />
          </mxGeometry>
        </mxCell>
        <mxCell id="RrywGPO0LAKcSDGo4g_0-22" value="Send file to API" style="rounded=0;whiteSpace=wrap;html=1;fillColor=#dae8fc;strokeColor=#6c8ebf;" parent="1" vertex="1">
          <mxGeometry x="400" y="220" width="120" height="60" as="geometry" />
        </mxCell>
        <mxCell id="RrywGPO0LAKcSDGo4g_0-28" style="edgeStyle=orthogonalEdgeStyle;rounded=0;orthogonalLoop=1;jettySize=auto;html=1;dashed=1;" parent="1" source="RrywGPO0LAKcSDGo4g_0-23" target="RrywGPO0LAKcSDGo4g_0-16" edge="1">
          <mxGeometry relative="1" as="geometry" />
        </mxCell>
        <mxCell id="RrywGPO0LAKcSDGo4g_0-23" value="Receive file from API" style="rounded=0;whiteSpace=wrap;html=1;fillColor=#dae8fc;strokeColor=#6c8ebf;" parent="1" vertex="1">
          <mxGeometry x="400" y="420" width="120" height="60" as="geometry" />
        </mxCell>
      </root>
    </mxGraphModel>
  </diagram>
</mxfile>
